<svg width="29" height="42" viewBox="0 0 29 42" fill="none" xmlns="http://www.w3.org/2000/svg">
    <path d="M18.3922 12.7029C19.5224 11.8732 20.3616 10.7076 20.7899 9.37248C21.2182 8.03741 21.2138 6.60114 20.7772 5.26874C20.3406 3.93634 19.4942 2.77594 18.3589 1.95322C17.2236 1.13049 15.8573 0.6875 14.4552 0.6875C13.0531 0.6875 11.6868 1.13049 10.5515 1.95322C9.41616 2.77594 8.56978 3.93634 8.13321 5.26874C7.69663 6.60114 7.69219 8.03741 8.1205 9.37248C8.54882 10.7076 9.388 11.8732 10.5182 12.7029" stroke="white" stroke-width="1.33333" stroke-linecap="round" stroke-linejoin="round"/>
    <path d="M18.3913 12.7026L23.111 15.8102C22.9936 16.7564 22.7235 17.6772 22.3112 18.5368H6.59838C6.18607 17.6772 5.91596 16.7564 5.79858 15.8102L10.5182 12.7026" stroke="white" stroke-width="1.33333" stroke-linecap="round" stroke-linejoin="round"/>
    <path d="M18.1305 18.5366C18.1305 27.9885 27.9096 29.37 27.9096 38.531C26.0919 40.8122 19.6492 41.3122 14.4548 41.3122C9.26042 41.3122 2.81771 40.8129 1 38.531C1 29.37 10.7791 27.9885 10.7791 18.5366" stroke="white" stroke-width="1.33333" stroke-linecap="round" stroke-linejoin="round"/>
</svg>